# xmcd CD database file
#
# Track frame offsets:
#	150
#	23271
#	38753
#	57364
#	79525
#	97907
#	114361
#	137039
#	148285
#	165287
#	170781
#	188528
#	216627
#	235071
#
# Disc length: 3449 seconds
#
# Revision: 1
# Processed by: cddbd v1.5PL3 Copyright (c) Steve Scherf et al.
# Submitted via: CDex 1.50
#
DISCID=b20d770e
DTITLE=Dilated Peoples - Neighborhood Watch
DYEAR=2004
DGENRE=Hip Hop
TTITLE0=Marathon
TTITLE1=Neighborhood Watch
TTITLE2=Tryin' To Breathe
TTITLE3=Caffeine
TTITLE4=Who's Who
TTITLE5=Poisonous [feat. Devin the Dude]
TTITLE6=Reach Us
TTITLE7=Big Business
TTITLE8=Love And War
TTITLE9=1580 [Skit]
TTITLE10=World On Wheels
TTITLE11=Closed Session [feat. Defari, Phil Da Agony, Planet Asia]
TTITLE12=This Way [feat. Kanye West]
TTITLE13=DJ Babu In Deep Conversation
EXTD=YEAR: 2004
EXTT0=
EXTT1=
EXTT2=
EXTT3=
EXTT4=
EXTT5=
EXTT6=
EXTT7=
EXTT8=
EXTT9=
EXTT10=
EXTT11=
EXTT12=
EXTT13=
PLAYORDER=
